# xmcd
#
# Track frame offsets:
#	150
#	14589
#	26358
#	37598
#	51378
#	67263
#	84027
#	97619
#	110940
#	124747
#	140509
#	153374
#	166778
#	180767
#	195663
#	205379
#	220660
#	237041
#	252404
#	267304
#	281520
#	294434
#	306900
#	325574
#
# Disc length: 4513 seconds
#
# Revision: 1
# Processed by: cddbd v1.5.2PL0 Copyright (c) Steve Scherf et al.
# Submitted via: audiograbber 1.83.01
#
DISCID=46119f18
DTITLE=Various Artist - 10 Jahre Schlagerparade 1951-1960 CD2
DYEAR=1900
DGENRE=Schlager
TTITLE0=Bruce Low - Soviel Wind und keine Segel
TTITLE1=Rita Paul - Spiel mir eine alte Melodie
TTITLE2=Gerhard Wendland - Jambalaya
TTITLE3=Maria von Schmedes - Ich möcht´ gern dein Herzklopfen hör´n
TTITLE4=Rudi Schuricke - Dreh´ dich noch einmal um
TTITLE5=Gerhard Wendland - Vagabundenlied
TTITLE6=Friedel Hensch and Die Cyprys - Tango Max
TTITLE7=Maria Andergast - Hans Lang - Du bist die Rose von Wörthersee
TTITLE8=Willy Schneider - Schütt´ die Sorgen in ein Gläschen Wein
TTITLE9=Rita Wottawa - Oh, mein Papa
TTITLE10=Heinz Woezel - Anneliese
TTITLE11=Detlev Lais - Es wird ja alles wieder gut
TTITLE12=Hula Hawaiian Quartett - Jim, Jonny und Jonas
TTITLE13=Gerhard Wendland - Lebewohl, du schwarze Rose
TTITLE14=Illo Schieder - Sieben einsame Tage
TTITLE15=Rudi Schuricke - Moulin Rouge (Ein Lied aus Paris)
TTITLE16=Rene Carol - Deinen Namen, den hab´ ich vergessen
TTITLE17=Mona Baptiste Bully Buhlan - Es liegt was in der Luft
TTITLE18=Caterina Valente - O Mama, O Mama, O Mamajo
TTITLE19=Friedel Hensch and Die Cyprys - Heideröslein
TTITLE20=Fred Rauch - Oh, Mr. Swoboda
TTITLE21=Cornell - Trio - Der Mann am Klavier
TTITLE22=Die singenden Waldmusikanten - Am Waldesrand
TTITLE23=Ernie Bieler - Rudi Hofstetter - Zwei himmelblaue Augen
EXTD=
EXTT0=
EXTT1=
EXTT2=
EXTT3=
EXTT4=
EXTT5=
EXTT6=
EXTT7=
EXTT8=
EXTT9=
EXTT10=
EXTT11=
EXTT12=
EXTT13=
EXTT14=
EXTT15=
EXTT16=
EXTT17=
EXTT18=
EXTT19=
EXTT20=
EXTT21=
EXTT22=
EXTT23=
PLAYORDER=
